<?xml version="1.0" encoding="utf-8"?>
<!-- Generator: Adobe Illustrator 26.3.1, SVG Export Plug-In . SVG Version: 6.00 Build 0)  -->
<svg version="1.1" id="Layer_1" xmlns="http://www.w3.org/2000/svg" xmlns:xlink="http://www.w3.org/1999/xlink" x="0px" y="0px"
	 viewBox="0 0 305 305" style="enable-background:new 0 0 305 305;" xml:space="preserve">
<path d="M238.9,34.3H67.2c-35.1,0-63.6,28.5-63.6,63.6v45c0,35.1,28.5,63.6,63.6,63.6h111.1c6.9,10.5,15.8,23.6,21.4,29.6
	c7.3,8,36,30.7,37.2,31.7c0.7,0.6,1.6,0.9,2.5,0.9c0.6,0,1.2-0.1,1.7-0.4c1.4-0.7,2.3-2.1,2.3-3.6v-58.3c33-2.3,59.2-30,59.2-63.5
	v-45C302.5,62.9,274,34.3,238.9,34.3L238.9,34.3z M294.5,142.9c0,30.5-24.8,55.4-55.2,55.6c-2.2,0-4,1.8-4,4v53.8
	c-9.1-7.3-25-20.3-29.8-25.6c-5.8-6.3-16.1-21.8-21.7-30.4c-0.7-1.1-2-1.8-3.4-1.8H67.2c-30.7,0-55.6-25-55.6-55.6V98
	c0-30.7,25-55.6,55.6-55.6h171.7c30.7,0,55.6,25,55.6,55.6V142.9z"/>
<path d="M87.2,102.8c-10.2,0-18.4,8.2-18.4,18.4S80.8,140,91,140s16.8-10.8,16.8-20.9S97.4,102.8,87.2,102.8z"/>
<path d="M158.6,102.8c-10.2,0-18.4,8.2-18.4,18.4s7.1,16.9,17.3,16.9s21.8-4.7,21.8-14.9S168.8,102.8,158.6,102.8z"/>
<path d="M229.9,100.4c-10.2,0-19.8,11.7-19.8,21.8s11.7,15.9,21.8,15.9s18.9-8.7,18.9-18.8S240.1,100.4,229.9,100.4L229.9,100.4z"/>
</svg>
