<svg width="40" height="40" viewBox="0 0 40 40" fill="none" xmlns="http://www.w3.org/2000/svg">
  <path d="M20 19.7033C13.6976 19.7033 7 17.4774 7 13.3524C7 9.22746 13.6976 7 20 7C26.3024 7 33 9.22594 33 13.3524C33 17.4789 26.3024 19.7033 20 19.7033ZM20 9.28067C13.2966 9.28067 9.17975 11.6526 9.17975 13.3524C9.17975 15.0523 13.2966 17.4227 20 17.4227C26.7034 17.4227 30.8203 15.0523 30.8203 13.3524C30.8203 11.6526 26.7049 9.28067 20 9.28067Z" fill="white"/>
  <path d="M30.8203 25.8047V26.6486C30.8203 28.3485 26.7049 30.7188 20 30.7188C13.2951 30.7188 9.17975 28.3485 9.17975 26.6486V25.8154C8.35661 25.3686 7.61801 24.7689 7 24.0456V26.8463C7.21071 30.845 13.7935 32.9995 19.9942 32.9995C26.1294 32.9995 32.6367 30.8906 32.9797 26.9725H32.9942V24.0273C32.3806 24.7551 31.6435 25.3577 30.8203 25.8047Z" fill="white"/>
  <path d="M30.8203 18.5958V20.1269C30.8203 21.8268 26.7049 24.1987 20 24.1987C13.2951 24.1987 9.17975 21.8268 9.17975 20.1269V18.7768C8.34393 18.2785 7.60462 17.621 7 16.8382V20.2729C7.15549 24.3051 13.7703 26.4794 19.9971 26.4794C26.1324 26.4794 32.6396 24.369 32.9826 20.4508H32.9971V16.7227C32.3729 17.466 31.6378 18.0986 30.8203 18.5958Z" fill="white"/>
</svg>