<svg width="100" height="100" viewBox="0 0 100 100" fill="none" xmlns="http://www.w3.org/2000/svg">
<g filter="url(#filter0_d_6345_11735)">
<mask id="path-1-outside-1_6345_11735" maskUnits="userSpaceOnUse" x="23" y="24" width="54" height="53" fill="black">
<rect fill="white" x="23" y="24" width="54" height="53" stroke="#000"/>
<path fill-rule="evenodd" clip-rule="evenodd" d="M32 28C32 26.3431 33.3431 25 35 25C36.6569 25 38 26.3431 38 28V31.5781H49V28C49 26.3431 50.3431 25 52 25C53.6569 25 55 26.3431 55 28V31.5781H65V28C65 26.3431 66.3431 25 68 25C69.6569 25 71 26.3431 71 28V31.829C73.8841 32.6333 76 35.2797 76 38.4202V68.5255C76 72.3043 72.9367 75.3676 69.1579 75.3676H30.8421C27.0633 75.3676 24 72.3043 24 68.5255V38.4202C24 34.6414 27.0633 31.5781 30.8421 31.5781H32V28ZM30.8421 45.2625V68.5255H69.1579V45.2625H30.8423H30.8421ZM60.2886 52.5174C61.2723 51.3698 61.1393 49.642 59.9917 48.6584C58.8441 47.6747 57.1163 47.8076 56.1326 48.9552L47.401 59.1422L43.6204 55.7396C42.4969 54.7285 40.7664 54.8196 39.7553 55.9431C38.7441 57.0666 38.8352 58.7971 39.9587 59.8082L45.8234 65.0864C46.3714 65.5796 47.0953 65.8309 47.8311 65.7832C48.5669 65.7356 49.2523 65.3931 49.7322 64.8332L60.2886 52.5174Z"/>
</mask>
<path fill-rule="evenodd" clip-rule="evenodd" d="M32 28C32 26.3431 33.3431 25 35 25C36.6569 25 38 26.3431 38 28V31.5781H49V28C49 26.3431 50.3431 25 52 25C53.6569 25 55 26.3431 55 28V31.5781H65V28C65 26.3431 66.3431 25 68 25C69.6569 25 71 26.3431 71 28V31.829C73.8841 32.6333 76 35.2797 76 38.4202V68.5255C76 72.3043 72.9367 75.3676 69.1579 75.3676H30.8421C27.0633 75.3676 24 72.3043 24 68.5255V38.4202C24 34.6414 27.0633 31.5781 30.8421 31.5781H32V28ZM30.8421 45.2625V68.5255H69.1579V45.2625H30.8423H30.8421ZM60.2886 52.5174C61.2723 51.3698 61.1393 49.642 59.9917 48.6584C58.8441 47.6747 57.1163 47.8076 56.1326 48.9552L47.401 59.1422L43.6204 55.7396C42.4969 54.7285 40.7664 54.8196 39.7553 55.9431C38.7441 57.0666 38.8352 58.7971 39.9587 59.8082L45.8234 65.0864C46.3714 65.5796 47.0953 65.8309 47.8311 65.7832C48.5669 65.7356 49.2523 65.3931 49.7322 64.8332L60.2886 52.5174Z" fill="#0c62fb" stroke="black"/>
<path d="M38 31.5781H37C37 32.1304 37.4477 32.5781 38 32.5781V31.5781ZM49 31.5781V32.5781C49.5523 32.5781 50 32.1304 50 31.5781H49ZM55 31.5781H54C54 32.1304 54.4477 32.5781 55 32.5781V31.5781ZM65 31.5781V32.5781C65.5523 32.5781 66 32.1304 66 31.5781H65ZM71 31.829H70C70 32.2778 70.299 32.6716 70.7314 32.7922L71 31.829ZM32 31.5781V32.5781C32.5523 32.5781 33 32.1304 33 31.5781H32ZM30.8421 68.5255H29.8421C29.8421 69.0778 30.2898 69.5255 30.8421 69.5255V68.5255ZM30.8421 45.2625V44.2625C30.2898 44.2625 29.8421 44.7103 29.8421 45.2625H30.8421ZM69.1579 68.5255V69.5255C69.7102 69.5255 70.1579 69.0778 70.1579 68.5255H69.1579ZM69.1579 45.2625H70.1579C70.1579 44.7103 69.7102 44.2625 69.1579 44.2625V45.2625ZM59.9917 48.6584L59.3409 49.4176L59.9917 48.6584ZM60.2886 52.5174L61.0478 53.1682L60.2886 52.5174ZM56.1326 48.9552L55.3734 48.3044V48.3044L56.1326 48.9552ZM47.401 59.1422L46.732 59.8855C46.9323 60.0657 47.1968 60.1575 47.4656 60.1401C47.7345 60.1227 47.9849 59.9975 48.1602 59.7929L47.401 59.1422ZM43.6204 55.7396L44.2894 54.9963L43.6204 55.7396ZM39.9587 59.8082L40.6277 59.0649L39.9587 59.8082ZM45.8234 65.0864L45.1544 65.8297H45.1544L45.8234 65.0864ZM47.8311 65.7832L47.7665 64.7853L47.8311 65.7832ZM49.7322 64.8332L48.9729 64.1824H48.9729L49.7322 64.8332ZM35 24C32.7909 24 31 25.7909 31 28H33C33 26.8954 33.8954 26 35 26V24ZM39 28C39 25.7909 37.2091 24 35 24V26C36.1046 26 37 26.8954 37 28H39ZM39 31.5781V28H37V31.5781H39ZM49 30.5781H38V32.5781H49V30.5781ZM48 28V31.5781H50V28H48ZM52 24C49.7909 24 48 25.7909 48 28H50C50 26.8954 50.8954 26 52 26V24ZM56 28C56 25.7909 54.2091 24 52 24V26C53.1046 26 54 26.8954 54 28H56ZM56 31.5781V28H54V31.5781H56ZM65 30.5781H55V32.5781H65V30.5781ZM64 28V31.5781H66V28H64ZM68 24C65.7909 24 64 25.7909 64 28H66C66 26.8954 66.8954 26 68 26V24ZM72 28C72 25.7909 70.2091 24 68 24V26C69.1046 26 70 26.8954 70 28H72ZM72 31.829V28H70V31.829H72ZM77 38.4202C77 34.8192 74.5737 31.7875 71.2686 30.8657L70.7314 32.7922C73.1944 33.4791 75 35.7401 75 38.4202H77ZM77 68.5255V38.4202H75V68.5255H77ZM69.1579 76.3676C73.489 76.3676 77 72.8566 77 68.5255H75C75 71.752 72.3844 74.3676 69.1579 74.3676V76.3676ZM30.8421 76.3676H69.1579V74.3676H30.8421V76.3676ZM23 68.5255C23 72.8566 26.511 76.3676 30.8421 76.3676V74.3676C27.6156 74.3676 25 71.752 25 68.5255H23ZM23 38.4202V68.5255H25V38.4202H23ZM30.8421 30.5781C26.511 30.5781 23 34.0892 23 38.4202H25C25 35.1937 27.6156 32.5781 30.8421 32.5781V30.5781ZM32 30.5781H30.8421V32.5781H32V30.5781ZM31 28V31.5781H33V28H31ZM31.8421 68.5255V45.2625H29.8421V68.5255H31.8421ZM69.1579 67.5255H30.8421V69.5255H69.1579V67.5255ZM68.1579 45.2625V68.5255H70.1579V45.2625H68.1579ZM30.8423 46.2625H69.1579V44.2625H30.8423V46.2625ZM30.8421 46.2625H30.8423V44.2625H30.8421V46.2625ZM59.3409 49.4176C60.0692 50.0419 60.1536 51.1383 59.5293 51.8666L61.0478 53.1682C62.3909 51.6013 62.2095 49.2422 60.6425 47.8991L59.3409 49.4176ZM56.8919 49.606C57.5162 48.8777 58.6126 48.7934 59.3409 49.4176L60.6425 47.8991C59.0756 46.556 56.7165 46.7375 55.3734 48.3044L56.8919 49.606ZM48.1602 59.7929L56.8919 49.606L55.3734 48.3044L46.6417 58.4914L48.1602 59.7929ZM42.9514 56.4829L46.732 59.8855L48.0699 58.3989L44.2894 54.9963L42.9514 56.4829ZM40.4986 56.612C41.1403 55.899 42.2384 55.8412 42.9514 56.4829L44.2894 54.9963C42.7554 53.6157 40.3926 53.7401 39.012 55.2741L40.4986 56.612ZM40.6277 59.0649C39.9147 58.4232 39.8569 57.325 40.4986 56.612L39.012 55.2741C37.6314 56.8081 37.7557 59.1709 39.2897 60.5515L40.6277 59.0649ZM46.4923 64.3431L40.6277 59.0649L39.2897 60.5515L45.1544 65.8297L46.4923 64.3431ZM47.7665 64.7853C47.2995 64.8156 46.8401 64.6561 46.4923 64.3431L45.1544 65.8297C45.9027 66.5032 46.8911 66.8462 47.8957 66.7811L47.7665 64.7853ZM48.9729 64.1824C48.6684 64.5377 48.2334 64.7551 47.7665 64.7853L47.8957 66.7811C48.9004 66.7161 49.8363 66.2484 50.4914 65.484L48.9729 64.1824ZM59.5293 51.8666L48.9729 64.1824L50.4914 65.484L61.0478 53.1682L59.5293 51.8666Z" fill="#000" mask="url(#path-1-outside-1_6345_11735)"/>
<rect x="27.4211" y="34.9992" width="45.1579" height="36.9474" rx="3.42105" stroke="#0c62fb" stroke-width="6.84211"/>
<rect x="31.5" y="24.5" width="7" height="13" rx="3.5" fill="#0c62fb" stroke="#000"/>
<rect x="48.5" y="24.5" width="7" height="13" rx="3.5" fill="#0c62fb" stroke="#000"/>
<rect x="64.5" y="24.5" width="7" height="13" rx="3.5" fill="#0c62fb" stroke="#000"/>
<path d="M32 28C32 26.3431 33.3431 25 35 25C36.6569 25 38 26.3431 38 28V31H32V28Z" fill="#0c62fb"/>
<path d="M41.7891 57.7739L47.6537 63.0521L58.2101 50.7363" stroke="#0c62fb" stroke-width="5.47368" stroke-linecap="round" stroke-linejoin="round"/>
</g>
<defs>
<filter id="filter0_d_6345_11735" x="8" y="9" width="84" height="82.3672" filterUnits="userSpaceOnUse" color-interpolation-filters="sRGB">
<feFlood flood-opacity="0" result="BackgroundImageFix"/>
<feOffset/>
<feGaussianBlur stdDeviation="7.5"/>
<feComposite in2="hardAlpha" operator="out"/>
<feBlend mode="normal" in2="BackgroundImageFix" result="effect1_dropShadow_6345_11735"/>
<feBlend mode="normal" in="SourceGraphic" in2="effect1_dropShadow_6345_11735" result="shape"/>
</filter>
</defs>
</svg>
