<svg width="27" height="26" viewBox="0 0 27 26" fill="none" xmlns="http://www.w3.org/2000/svg">
<path d="M13.5 12.7033C7.19763 12.7033 0.5 10.4774 0.5 6.35243C0.5 2.22746 7.19763 0 13.5 0C19.8024 0 26.5 2.22594 26.5 6.35243C26.5 10.4789 19.8024 12.7033 13.5 12.7033ZM13.5 2.28067C6.79656 2.28067 2.67975 4.65257 2.67975 6.35243C2.67975 8.0523 6.79656 10.4227 13.5 10.4227C20.2034 10.4227 24.3203 8.0523 24.3203 6.35243C24.3203 4.65257 20.2049 2.28067 13.5 2.28067Z" fill="white"/>
<path d="M24.3203 18.8047V19.6486C24.3203 21.3485 20.2049 23.7188 13.5 23.7188C6.7951 23.7188 2.67975 21.3485 2.67975 19.6486V18.8154C1.85661 18.3686 1.11801 17.7689 0.5 17.0456V19.8463C0.710709 23.845 7.29354 25.9995 13.4942 25.9995C19.6294 25.9995 26.1367 23.8906 26.4797 19.9725H26.4942V17.0273C25.8806 17.7551 25.1435 18.3577 24.3203 18.8047Z" fill="white"/>
<path d="M24.3203 11.5958V13.1269C24.3203 14.8268 20.2049 17.1987 13.5 17.1987C6.7951 17.1987 2.67975 14.8268 2.67975 13.1269V11.7768C1.84393 11.2785 1.10462 10.621 0.5 9.83821V13.2729C0.655489 17.3051 7.27029 19.4794 13.4971 19.4794C19.6324 19.4794 26.1396 17.369 26.4826 13.4508H26.4971V9.72266C25.8729 10.466 25.1378 11.0986 24.3203 11.5958Z" fill="white"/>
</svg>
