<?xml version="1.0" encoding="UTF-8"?><svg id="Layer_1" xmlns="http://www.w3.org/2000/svg" viewBox="0 0 305 305"><defs><style>.cls-1{fill:#231f20;}</style></defs><path class="cls-1" d="M64.18,16.27c0-7.43-5.59-13.46-12.49-13.46s-12.49,6.03-12.49,13.46c0,6.07,3.73,11.19,8.84,12.87l9.89,269.44c.08,2.16,1.85,3.85,3.99,3.85,.05,0,.1,0,.15,0,2.21-.08,3.93-1.94,3.85-4.14L56.04,28.87c4.75-1.91,8.13-6.82,8.13-12.6Z"/><path class="cls-1" d="M266.41,88.24c-.36-1.84-1.96-3.18-3.83-3.22-.32,0-32.35-.77-65.24-2.94-11.06-.73-20.39-1.5-28.26-2.27l-.35-25c.04-.75-.05-1.51-.27-2.27-1.32-4.46-6.08-8.37-49.48-7.19-21.8,.59-43.57,2.29-43.78,2.31-2.15,.17-3.77,2-3.68,4.15l2.88,69.15c.04,1.1,.54,2.13,1.37,2.85s1.91,1.07,3.01,.97l41.58-3.99,.37,12.72c.04,1.2,.61,2.32,1.56,3.06,.71,.54,1.56,.83,2.43,.83,.31,0,.62-.04,.92-.11,1.79-.43,44.13-10.46,58.81-14.79,35.15-10.36,79.19-29.61,79.63-29.81,1.72-.75,2.68-2.6,2.32-4.44Zm-146.77-17.89c-.17,.37-.29,.75-.38,1.13-.21,.51-.32,1.07-.3,1.65l1.17,39.63-37.9,3.63-2.54-61.07c32.22-2.38,67.82-3.12,78.78-.66-2.67,.78-6.7,1.48-9.69,2.01-11.7,2.06-24.96,4.39-29.13,13.67Zm62.56,44.46c-11.6,3.42-41.85,10.72-53.62,13.54l-1.4-47.51c8.13,2.91,26.22,6.32,68.36,9.14,17.95,1.2,35.76,1.99,48.48,2.46-15.96,6.52-40.57,16.11-61.83,22.38Z"/></svg>