<svg width="24" height="24" viewBox="0 0 24 24" fill="none" xmlns="http://www.w3.org/2000/svg">
<g clip-path="url(#clip0_3737_51227)">
<path d="M20.0089 3.40623C17.8859 1.428 14.939 0.616722 11.2399 0.816591C2.45586 1.28951 0.8396 9.33934 0.8396 12.4302C0.8396 15.359 2.06793 18.0785 4.29875 20.0874C6.4674 22.0405 9.32301 23.1153 12.3399 23.1153C15.3568 23.1153 18.059 21.9468 20.1151 19.8246C22.1547 17.7205 23.2776 14.9184 23.2776 11.9345C23.2776 8.3998 22.117 5.37108 20.0081 3.40623H20.0089ZM19.6635 19.3863C18.8601 20.2149 17.9433 20.8885 16.9456 21.3944C16.2405 21.3244 14.7108 21.1702 13.7264 21.0608C12.6515 20.942 11.0353 21.8917 10.3688 22.3214C8.48026 22.0035 6.71842 21.23 5.24301 20.0607C5.25245 20.0591 5.15567 20.2298 5.16511 20.2283C5.36655 20.1866 5.63016 19.8655 5.68288 19.6672C5.71278 19.5555 5.70491 19.4351 5.66242 19.3281L5.24852 18.2933C5.22255 18.2288 5.22098 18.1572 5.24222 18.0911L5.68603 16.7605C5.69783 16.725 5.71593 16.6928 5.74032 16.6637C5.87567 16.5039 6.11645 16.0452 5.43186 15.2465C4.83068 14.5454 4.16026 14.3557 3.81403 14.3054C3.69363 14.2881 3.5693 14.3132 3.46307 14.377L2.50544 14.9514C2.47632 14.9687 2.41809 14.9971 2.35593 15.0262C2.16629 15.1167 2.00734 15.1977 1.90268 15.2827C1.61704 14.3715 1.46832 13.413 1.46832 12.4302C1.46832 9.49594 2.46373 6.78197 4.27042 4.78957C4.64104 4.38118 5.04235 4.00662 5.47042 3.66748C6.35881 3.684 6.72314 3.47626 7.67763 3.13239C8.8556 2.70748 10.501 2.77672 10.9031 2.78616C10.9448 2.93489 11.0494 3.21266 11.2816 3.37239C11.4437 3.48413 11.6357 3.51954 11.8521 3.47626C12.4871 3.34957 15.1892 2.07325 15.7613 1.80177C16.7906 2.07561 17.7183 2.48951 18.5398 3.04269L14.5251 5.84872C14.2088 5.90774 11.5137 6.42472 10.7111 6.98735C10.1949 7.34931 9.43947 8.91364 9.29075 9.22997L8.96026 9.31259C8.46216 9.43692 8.07501 9.82407 7.95068 10.3222C7.95068 10.3222 7.38255 11.5308 7.34714 11.9188C7.29993 12.4302 7.62412 13.0094 8.31108 13.6389C10.006 15.1922 10.8795 15.2158 10.9157 15.2158C11.6797 15.2544 11.6726 15.4015 11.6443 16.0216C11.6349 16.2285 11.6231 16.4851 11.642 16.7864L11.4075 18.5703C11.4106 18.6151 11.5947 19.1321 11.9772 19.125C12.4304 19.1164 12.657 18.7788 12.657 18.7788C13.0946 18.4609 13.5439 17.822 13.7839 17.3372L15.5048 13.8647C15.7983 13.3202 15.7747 12.6569 15.445 12.1344L14.5951 10.788C14.3614 10.4182 13.9798 10.1648 13.5486 10.0924L10.8921 9.64938L10.7473 8.57528C10.7496 8.41239 10.8291 8.24872 10.9605 8.1362C11.0746 8.03862 11.21 7.99613 11.3359 8.01659L14.2694 8.61148C14.2804 8.61384 14.2914 8.61462 14.3024 8.61384L16.198 8.47849L16.7205 9.26223C16.7284 9.27403 16.7378 9.28426 16.7488 9.29213C16.7544 9.29607 17.2871 9.70367 17.5515 10.3631C17.8497 11.1098 19.6808 11.5371 20.0286 11.3396C20.3126 11.1783 20.5652 9.73043 20.5652 9.73043L22.4545 9.5581C22.5828 10.3159 22.6489 11.1106 22.6489 11.9353C22.6489 14.7547 21.589 17.401 19.6643 19.3871L19.6635 19.3863Z" fill="#202020"/>
</g>
<defs>
<clipPath id="clip0_3737_51227">
<rect width="24" height="24" fill="white"/>
</clipPath>
</defs>
</svg>
