<svg width="60" height="60" viewBox="0 0 60 60" fill="none" xmlns="http://www.w3.org/2000/svg">
<circle cx="30" cy="30" r="30" fill="#DAE9FF"/>
<path d="M23.0535 31.4489C23.0487 31.453 23.0452 31.4563 23.0404 31.4604C23.0192 31.4773 22.9952 31.4942 22.9691 31.5111L22.7751 31.664C22.6887 31.7147 22.6071 31.7682 22.5297 31.8236C22.4522 31.8791 22.3747 31.9319 22.2972 31.9833C22.2026 32.0428 22.1073 32.0983 22.0127 32.149C21.9181 32.1997 21.8228 32.2471 21.7282 32.289C21.8139 32.1957 21.8982 32.0915 21.9805 31.9765C22.0621 31.8615 22.1375 31.7533 22.2067 31.6511C22.2753 31.549 22.3363 31.4557 22.3878 31.3704C22.4392 31.2859 22.4735 31.2263 22.4913 31.1918C22.6209 30.9876 22.7456 30.784 22.8663 30.5797C22.987 30.3754 23.1076 30.1718 23.2283 29.9675C23.168 29.908 23.1118 29.8552 23.0603 29.8079C23.0089 29.7612 22.9609 29.7125 22.9184 29.6611C22.8492 29.5677 22.7614 29.5082 22.6538 29.4825C22.5461 29.4568 22.4447 29.4784 22.35 29.5461C22.2897 29.5887 22.2403 29.6374 22.2013 29.6929C22.1622 29.7483 22.1217 29.8058 22.0785 29.8647C22.0443 29.9154 21.9791 30.0135 21.8845 30.1583C21.7899 30.303 21.6864 30.4579 21.5746 30.6236C21.5266 30.6947 21.48 30.7643 21.4341 30.8333C21.371 30.8645 21.3059 30.8962 21.2359 30.9294C20.9946 31.0444 20.7622 31.1526 20.538 31.2548C20.3138 31.3569 20.1177 31.4421 19.9497 31.5098C19.7818 31.5781 19.6933 31.6031 19.6851 31.5862C19.6679 31.5693 19.67 31.5477 19.6913 31.5226C19.7125 31.4969 19.7324 31.476 19.7495 31.459C19.8181 31.3745 19.9024 31.2696 20.0018 31.1465C20.1006 31.0234 20.2041 30.8956 20.3117 30.7637C20.4194 30.6318 20.5229 30.5019 20.6216 30.3747C20.7204 30.2475 20.8047 30.1366 20.8739 30.0433C20.9685 29.9073 21.068 29.7862 21.1715 29.68C21.275 29.5738 21.4039 29.4784 21.5595 29.3932C21.5938 29.3763 21.626 29.3506 21.6562 29.3168C21.6864 29.2829 21.7186 29.2491 21.7529 29.2146C21.5376 28.917 21.2311 28.8067 20.8348 28.8832C20.3179 28.9765 19.8092 29.032 19.3094 29.0489C18.9062 29.0624 18.5031 29.0651 18.1 29.0563C18.2336 29.0063 18.3694 28.9535 18.5086 28.896C18.6292 28.8365 18.7458 28.7729 18.8576 28.7046C18.9693 28.6369 19.0859 28.5686 19.2065 28.5003C19.3101 28.4327 19.4067 28.3495 19.4972 28.2514C19.5877 28.154 19.6933 28.0836 19.814 28.041C19.9086 27.9984 19.9991 27.9409 20.0855 27.8685C20.1712 27.7961 20.2617 27.7265 20.357 27.6581C20.4173 27.6155 20.4735 27.5736 20.525 27.5303C20.5764 27.4877 20.6326 27.4457 20.6929 27.4024C20.7533 27.3517 20.8156 27.3023 20.8801 27.2557C20.9445 27.209 20.9939 27.1515 21.0289 27.0838C21.1063 26.9391 21.1927 26.795 21.2873 26.6502C21.382 26.5055 21.4341 26.3445 21.4423 26.1659C21.4505 26.1321 21.4814 26.0895 21.5328 26.0381C21.5328 25.9873 21.5369 25.9447 21.5458 25.9102C21.5369 25.8676 21.5328 25.823 21.5328 25.7763C21.5328 25.7296 21.5239 25.685 21.5067 25.6424C21.4464 25.5321 21.3881 25.4239 21.3326 25.317C21.2764 25.2108 21.2099 25.1154 21.1324 25.0302C20.9946 24.8773 20.8369 24.7711 20.6607 24.7116C20.4838 24.652 20.2966 24.6142 20.0985 24.5966C19.8743 24.5885 19.6529 24.5756 19.4328 24.558C19.2127 24.5411 18.9912 24.5371 18.7671 24.5452C18.5943 24.554 18.4674 24.5195 18.3859 24.443C18.3036 24.3666 18.2672 24.2178 18.2762 23.9966C18.2247 24.0304 18.1767 24.0581 18.1342 24.0798C18.091 24.1008 18.0568 24.1332 18.0307 24.1752C17.9615 24.2435 17.9011 24.3179 17.8497 24.3984C17.7983 24.4796 17.738 24.5533 17.6687 24.6216C17.5912 24.7068 17.5138 24.7704 17.4363 24.813C17.1607 24.9064 16.8871 24.9937 16.6156 25.0741C16.3441 25.1553 16.0747 25.2548 15.808 25.3738C15.5838 25.4847 15.3493 25.5991 15.1038 25.7181C14.8584 25.8372 14.6363 25.9454 14.4381 26.0435C14.24 26.1416 14.0871 26.2241 13.9794 26.2924C13.8718 26.3607 13.8478 26.3986 13.9081 26.4074L12.7063 27.096C12.672 27.1217 12.6288 27.1596 12.5767 27.211C12.6281 27.2448 12.6624 27.2705 12.6802 27.2874C12.7406 27.3558 12.8029 27.4065 12.8674 27.4403C12.9318 27.4741 13.0162 27.4741 13.1197 27.4403C13.1883 27.4146 13.2575 27.3957 13.3267 27.3828C13.3953 27.37 13.4646 27.3551 13.5338 27.3382C13.577 27.3301 13.6222 27.3172 13.6696 27.2996C13.7169 27.2827 13.7621 27.2658 13.8053 27.2489L15.5241 26.5095C15.6619 26.4588 15.7977 26.4033 15.9314 26.3438C16.0651 26.2843 16.2049 26.2207 16.3517 26.1524C16.2824 26.2457 16.2221 26.3289 16.1707 26.4013C16.1192 26.4737 16.0671 26.544 16.0157 26.6117C15.8518 26.8329 15.6928 27.0412 15.5371 27.2367C15.4254 27.3646 15.315 27.4917 15.2074 27.6196C15.0997 27.7474 14.9893 27.8793 14.8776 28.0146C14.783 28.1337 14.6904 28.2588 14.5999 28.3907C14.5094 28.5226 14.4169 28.6478 14.3223 28.7668C14.2016 28.9116 14.0768 29.0516 13.9472 29.1876C13.8176 29.3235 13.6929 29.4642 13.5722 29.6083C13.4947 29.7017 13.4193 29.793 13.3459 29.8823C13.2726 29.9716 13.1972 30.0629 13.1197 30.1562C12.9901 30.3267 12.8612 30.4944 12.7316 30.6602C12.6021 30.8259 12.4732 30.9937 12.3436 31.1641C12.1454 31.411 11.9535 31.6593 11.7684 31.9102C11.5832 32.1612 11.3954 32.4101 11.2062 32.6563C11.0594 32.8518 10.9113 33.0453 10.7605 33.2367C10.6097 33.4281 10.4609 33.6257 10.3149 33.83C10.1599 34.0511 10.0091 34.2764 9.86237 34.5057C9.71565 34.735 9.56961 34.965 9.42289 35.1943C9.36256 35.2789 9.30223 35.3601 9.24189 35.4365C9.18156 35.5129 9.11711 35.5934 9.04786 35.6787C9.01358 35.7213 8.9985 35.774 9.00261 35.8383C9.00673 35.9019 9.03072 35.9425 9.07392 35.9594C9.12534 35.9763 9.16853 35.9891 9.2035 35.9979H9.22955C9.24669 35.981 9.25972 35.9661 9.26863 35.9533C9.27754 35.9404 9.29057 35.9256 9.30771 35.9086C9.36804 35.8579 9.43043 35.8106 9.49488 35.7686C9.55933 35.726 9.60458 35.6753 9.63063 35.6157C9.69988 35.4453 9.79655 35.3053 9.92133 35.195C10.0461 35.0847 10.1565 34.961 10.2511 34.825C10.2943 34.7655 10.4431 34.6058 10.6968 34.3468C10.9511 34.0877 11.2569 33.7812 11.6148 33.4288C11.972 33.0757 12.3559 32.6976 12.7652 32.2938C13.1745 31.8899 13.5599 31.5118 13.9219 31.1587C14.2839 30.8063 14.5917 30.5039 14.8461 30.253C15.1004 30.002 15.2533 29.8471 15.3047 29.7876C15.3561 29.7199 15.4124 29.6726 15.4727 29.6475C15.533 29.6218 15.6023 29.6009 15.6798 29.584C15.8265 29.567 15.9746 29.567 16.1254 29.584C16.2762 29.6009 16.425 29.563 16.571 29.469C16.5882 29.4608 16.6033 29.4581 16.6163 29.4629C16.6293 29.4669 16.6444 29.469 16.6615 29.469C16.8083 29.4263 16.9591 29.3885 17.114 29.354C17.269 29.3201 17.4198 29.2816 17.5666 29.239C17.5837 29.2336 17.6008 29.2275 17.6173 29.2227C17.6125 29.2484 17.6125 29.2728 17.6173 29.2965C17.6255 29.335 17.6385 29.3709 17.6564 29.4047C17.6996 29.5238 17.7661 29.611 17.8566 29.6658C17.9471 29.7213 18.0485 29.77 18.1603 29.8126C18.0657 29.9486 17.9402 30.121 17.7853 30.3294C17.6303 30.5377 17.4685 30.7549 17.3005 30.9794C17.1326 31.2047 16.9728 31.4239 16.822 31.6363C16.6711 31.8487 16.5525 32.0191 16.4668 32.1463C16.3983 32.2315 16.329 32.3168 16.2598 32.4013C16.1912 32.4865 16.122 32.5758 16.0527 32.6692C16.0699 32.6611 16.0918 32.6563 16.1172 32.6563C16.255 32.682 16.3976 32.6861 16.5436 32.6692C16.6643 32.6523 16.7959 32.6205 16.9378 32.5738C17.0798 32.5271 17.2114 32.4439 17.3321 32.3249L17.5261 32.0956C17.6207 31.9853 17.7434 31.8365 17.8943 31.6491C18.0451 31.4624 18.2001 31.2642 18.3598 31.0559C18.5189 30.8475 18.6697 30.648 18.8123 30.4566C18.9542 30.2651 19.0646 30.1102 19.1421 29.9912C19.2196 29.8978 19.3121 29.8424 19.4198 29.8254C19.5274 29.8085 19.6289 29.8085 19.7235 29.8254C19.6371 29.9357 19.5315 30.0805 19.4067 30.259C19.2819 30.4376 19.1805 30.5776 19.103 30.6798C18.9131 30.901 18.7348 31.1242 18.5669 31.3495C18.3989 31.5747 18.2583 31.8148 18.1466 32.0699C18.0862 32.197 18.0862 32.3229 18.1466 32.446C18.2069 32.5691 18.2974 32.6435 18.4181 32.6692C18.5387 32.6949 18.6574 32.6922 18.7732 32.6631C18.8898 32.6333 19.0036 32.5846 19.116 32.5163C19.1592 32.4906 19.2367 32.4419 19.3484 32.3695C19.4602 32.2971 19.5898 32.2126 19.7365 32.1145C19.8832 32.0171 20.0443 31.9129 20.2212 31.802C20.3974 31.6917 20.5723 31.5767 20.745 31.4577C20.9014 31.3549 21.0645 31.248 21.2311 31.1391C21.1386 31.2798 21.0673 31.3867 21.0193 31.4577C21.0021 31.4915 20.9761 31.547 20.9418 31.6234C20.9075 31.6999 20.8753 31.7831 20.8451 31.8723C20.815 31.9616 20.791 32.0469 20.7738 32.1274C20.7567 32.2085 20.7526 32.2741 20.7608 32.3249C20.7869 32.4182 20.8554 32.5055 20.9679 32.586C21.0796 32.6672 21.1962 32.6861 21.3168 32.6435C21.4375 32.6266 21.5561 32.5968 21.672 32.5542C21.7885 32.5116 21.8982 32.4649 22.0018 32.4142C22.0703 32.3803 22.1354 32.3398 22.1958 32.2931C22.2561 32.2464 22.3206 32.1977 22.3898 32.1463C22.4241 32.1125 22.4824 32.055 22.564 31.9745C22.6455 31.894 22.7278 31.8088 22.8094 31.7195C22.891 31.6302 22.9602 31.5537 23.0165 31.4902C23.0315 31.4732 23.0446 31.459 23.0555 31.4469L23.0535 31.4489ZM17.4994 28.5274C17.3355 28.6126 17.1675 28.685 16.9954 28.7438C16.8487 28.7946 16.7027 28.8311 16.556 28.8521C16.4092 28.8737 16.2632 28.8967 16.1165 28.9224L16.0904 28.8717C16.2543 28.6505 16.4134 28.434 16.569 28.2216C16.7239 28.0092 16.8837 27.7921 17.0475 27.5716C17.0736 27.5377 17.0928 27.4992 17.1058 27.4566C17.1188 27.4139 17.1339 27.372 17.1511 27.3287C17.2457 27.167 17.3403 27.023 17.4356 26.8951C17.4959 26.793 17.5583 26.6956 17.6228 26.6015C17.6872 26.5082 17.7496 26.4101 17.8099 26.308C17.836 26.2572 17.8531 26.2018 17.8614 26.1422C17.8696 26.0827 17.8826 26.0232 17.9004 25.9637C17.9087 25.938 17.9135 25.9129 17.9135 25.8872C17.9135 25.8615 17.9217 25.8406 17.9395 25.8236C17.9909 25.7391 18.041 25.662 18.0883 25.5943C18.1356 25.5267 18.2151 25.4922 18.3276 25.4922C18.4743 25.4841 18.6162 25.4624 18.754 25.4286C18.8918 25.3948 19.0338 25.3691 19.1805 25.3522C19.3443 25.3353 19.5055 25.3292 19.6652 25.3332C19.8243 25.3373 19.9861 25.344 20.1499 25.3522C20.1671 25.3522 20.1863 25.3711 20.2082 25.4097C20.2295 25.4482 20.2363 25.4753 20.2274 25.4929C20.1671 25.6457 20.1088 25.7986 20.0533 25.9522C19.997 26.105 19.9346 26.2539 19.8661 26.3986C19.8318 26.4669 19.8016 26.5325 19.7756 26.5961C19.7495 26.6597 19.7152 26.726 19.6721 26.7937C19.5342 26.9891 19.4006 27.1718 19.2717 27.3422C19.1599 27.4782 19.0454 27.6101 18.9289 27.7373C18.8123 27.8645 18.6766 27.9666 18.5216 28.043C18.4352 28.0856 18.3488 28.1262 18.2631 28.1641C18.1767 28.2027 18.0904 28.2426 18.0047 28.2852C17.8319 28.3616 17.6639 28.4428 17.5007 28.5274H17.4994Z" fill="#52024A"/>
<path d="M22.5619 29.2348C22.6956 29.3329 22.8053 29.3897 22.8917 29.4073C22.9863 29.4242 23.0877 29.4242 23.1954 29.4073C23.303 29.3904 23.4086 29.3734 23.5121 29.3565C23.5978 29.3396 23.6739 29.2929 23.7384 29.2165C23.8028 29.1401 23.8268 29.0596 23.8097 28.9743C23.7925 28.9317 23.7836 28.8871 23.7836 28.8404C23.7836 28.7937 23.7706 28.7619 23.7445 28.745C23.7014 28.7024 23.6369 28.6706 23.5505 28.6497C23.4641 28.6287 23.4209 28.6219 23.4209 28.6307C23.3606 28.6307 23.3174 28.6348 23.2914 28.6436C23.1446 28.6605 22.9986 28.6821 22.8519 28.7071C22.7052 28.7329 22.5591 28.7579 22.4124 28.7836C22.3953 28.7924 22.3733 28.8134 22.348 28.8472C22.3219 28.881 22.3137 28.9067 22.3219 28.9236C22.348 29.0339 22.4275 29.1387 22.5612 29.2361L22.5619 29.2348Z" fill="#52024A"/>
<path d="M23.0537 31.449C23.0695 31.4362 23.0852 31.4227 23.099 31.4091C23.099 31.403 23.0839 31.4166 23.0537 31.449Z" fill="#52024A"/>
<path d="M43.1247 28.7441C43.0815 28.7014 43.0171 28.6696 42.9307 28.6487C42.8443 28.6277 42.8018 28.6209 42.8018 28.6297C42.7415 28.6297 42.6983 28.6338 42.6722 28.6426C42.5255 28.6595 42.3795 28.6811 42.2327 28.7062C42.086 28.7319 41.94 28.7569 41.7933 28.7826C41.7761 28.7914 41.7542 28.8124 41.7288 28.8462C41.7028 28.88 41.6945 28.9057 41.7028 28.9226C41.7288 29.0329 41.8084 29.1377 41.9421 29.2351C42.0757 29.3332 42.1854 29.3901 42.2718 29.4076C42.3664 29.4246 42.4679 29.4246 42.5756 29.4076C42.6832 29.3907 42.7888 29.3738 42.8923 29.3569C42.978 29.34 43.0541 29.2933 43.1186 29.2169C43.183 29.1404 43.207 29.0599 43.1899 28.9747C43.1727 28.9321 43.1638 28.8875 43.1638 28.8408C43.1638 28.7941 43.1508 28.7623 43.1247 28.7454V28.7441Z" fill="#52024A"/>
<path d="M51.1855 31.4733C50.9784 31.5835 50.7913 31.6776 50.6233 31.754C50.4553 31.8304 50.371 31.8602 50.371 31.8433C50.371 31.8264 50.384 31.7689 50.4101 31.6715C50.4361 31.5741 50.4683 31.457 50.5067 31.3211C50.5458 31.1851 50.5842 31.0451 50.6233 30.9003C50.6624 30.7556 50.6987 30.6284 50.733 30.5175C50.7412 30.5094 50.746 30.5026 50.746 30.4985C50.746 30.4945 50.7501 30.4877 50.759 30.4796C50.7762 30.437 50.7892 30.3964 50.7981 30.3585C50.8064 30.32 50.8112 30.2841 50.8112 30.2503C50.8283 30.0805 50.8091 29.9378 50.7529 29.8228C50.6967 29.7078 50.6473 29.6293 50.6041 29.5867C50.587 29.5698 50.5739 29.5529 50.565 29.536C50.5136 29.4426 50.4725 29.3466 50.4423 29.2492C50.4121 29.1517 50.3326 29.0942 50.203 29.0773C50.0302 29.0604 49.852 29.0692 49.6669 29.103C49.4818 29.1369 49.309 29.1795 49.1499 29.2309C48.9902 29.2816 48.8462 29.3391 48.7166 29.4034C48.587 29.467 48.4924 29.5204 48.4321 29.563C48.3286 29.6482 48.1626 29.7802 47.9343 29.9581C47.706 30.1366 47.4798 30.3362 47.2556 30.5574C47.0314 30.7786 46.8374 31.0059 46.6742 31.2399C46.6262 31.3082 46.5871 31.3745 46.5549 31.4395C46.3972 31.4692 46.2217 31.5044 46.0277 31.5457C45.7692 31.6011 45.4956 31.6627 45.207 31.7303C44.9183 31.7986 44.6468 31.8534 44.3925 31.896C44.1381 31.9387 43.916 31.9664 43.7268 31.9793C43.5368 31.9921 43.4162 31.9772 43.3648 31.9346C43.373 31.892 43.4059 31.8304 43.4614 31.7499C43.5177 31.6694 43.5821 31.5802 43.6555 31.4821C43.7288 31.3847 43.8104 31.2866 43.9009 31.1885C43.9914 31.0911 44.075 31.0038 44.1532 30.9274C44.1532 30.9193 44.1573 30.9145 44.1662 30.9145C44.4076 30.6852 44.675 30.464 44.9677 30.2516C45.2605 30.0392 45.5107 29.8945 45.7171 29.818C45.6999 29.9371 45.6588 30.0521 45.5944 30.1623C45.5299 30.2726 45.4154 30.4302 45.2516 30.6345C45.4497 30.6683 45.6478 30.6731 45.846 30.6473C46.0441 30.6216 46.2806 30.5709 46.5569 30.4945C46.6173 30.4268 46.6646 30.3436 46.6989 30.2455C46.7332 30.1481 46.7524 30.0521 46.7572 29.9587C46.7613 29.8654 46.7572 29.7822 46.7441 29.7098C46.7311 29.6374 46.7071 29.5928 46.6728 29.5759C46.5439 29.5759 46.4575 29.542 46.4143 29.4737C46.3629 29.3804 46.3218 29.2843 46.2916 29.1869C46.2615 29.0895 46.1819 29.032 46.0523 29.0151C45.8796 28.9982 45.7013 29.007 45.5162 29.0408C45.3311 29.0746 45.1583 29.1172 44.9992 29.1687C44.8395 29.2194 44.6955 29.2769 44.5659 29.3405C44.4364 29.4041 44.3417 29.4575 44.2814 29.5001C44.1779 29.5853 44.012 29.7172 43.7837 29.8951C43.5554 30.0737 43.3291 30.2733 43.1049 30.4945C42.8807 30.7157 42.6867 30.9429 42.5235 31.177C42.4406 31.2954 42.3816 31.4083 42.3446 31.5166L42.1533 31.6681C42.0669 31.7188 41.9853 31.7723 41.9078 31.8277C41.8304 31.8832 41.7529 31.936 41.6754 31.9874C41.5808 32.0469 41.4855 32.1024 41.3909 32.1531C41.2963 32.2038 41.201 32.2512 41.1064 32.2931C41.1921 32.1998 41.2764 32.0956 41.3587 31.9806C41.4403 31.8656 41.5157 31.7574 41.5849 31.6552C41.6535 31.5531 41.7138 31.4597 41.7659 31.3745C41.8173 31.29 41.8516 31.2304 41.8694 31.1959C41.9983 30.9917 42.1238 30.788 42.2445 30.5838C42.3651 30.3795 42.4858 30.1759 42.6065 29.9716C42.5461 29.9121 42.4899 29.8593 42.4385 29.8119C42.3871 29.7653 42.3391 29.7166 42.2966 29.6652C42.2273 29.5718 42.1396 29.5123 42.0312 29.4866C41.9236 29.4609 41.8221 29.4825 41.7275 29.5502C41.6672 29.5928 41.6178 29.6415 41.5787 29.697C41.5397 29.7524 41.4992 29.8099 41.456 29.8688C41.4265 29.9121 41.3751 29.9898 41.3024 30.1008C41.2661 30.1238 41.225 30.1508 41.177 30.1813C41.0392 30.2706 40.8815 30.3727 40.7053 30.487C40.5284 30.602 40.3412 30.7231 40.1431 30.8503C39.9449 30.9781 39.7639 31.0951 39.6001 31.2007C39.4362 31.3069 39.2422 31.428 39.0187 31.5639C39.0447 31.5213 39.1133 31.4192 39.2257 31.2582C39.3375 31.0965 39.463 30.9159 39.6008 30.7163C39.7386 30.5168 39.8743 30.3233 40.008 30.136C40.1417 29.9493 40.2425 29.8086 40.3117 29.7152C40.4064 29.5874 40.5592 29.3689 40.7704 29.0584C40.9816 28.7479 41.1989 28.4273 41.4231 28.0958C41.8886 28.0789 42.2548 28.0681 42.5215 28.064C42.7882 28.06 45.2138 28.0559 45.3647 28.0512C45.5155 28.0471 45.6273 28.0431 45.7006 28.0383C45.774 28.0343 45.8576 28.0275 45.9529 28.0194C45.9961 28.0113 46.0345 27.9856 46.0695 27.943C46.1038 27.9003 46.1298 27.8584 46.147 27.8151C46.1641 27.7725 46.1641 27.7218 46.147 27.6622C46.1298 27.6027 46.1127 27.5601 46.0955 27.5344C46.0091 27.4579 45.9166 27.3896 45.8179 27.3301C45.7185 27.2706 45.6218 27.207 45.5272 27.1387C45.51 27.1218 45.486 27.113 45.4559 27.113H45.3722L42.9006 27.1542L42.0312 27.1765C42.0655 27.1258 42.0978 27.0791 42.1279 27.0365C42.1581 26.9939 42.1814 26.956 42.1992 26.9215C42.2253 26.8877 42.2465 26.8539 42.2637 26.8194C42.2897 26.7687 42.3411 26.6902 42.4186 26.5833C42.4961 26.4771 42.5756 26.3648 42.6579 26.2451C42.7395 26.126 42.817 26.0158 42.8903 25.9136C42.9637 25.8115 43.013 25.7439 43.0391 25.7094C43.1426 25.6072 43.194 25.5078 43.194 25.4097C43.194 25.3116 43.1337 25.2331 43.013 25.1736C42.8752 25.0891 42.7073 25.0207 42.5091 24.9693C42.492 24.9612 42.4659 24.9693 42.4316 24.995C42.3974 25.0207 42.3672 25.0417 42.3411 25.0586C42.1601 25.3055 41.9983 25.5287 41.8564 25.7283C41.7145 25.9278 41.5506 26.1578 41.3655 26.4169C41.1804 26.676 40.9926 26.9459 40.8033 27.2266C40.6744 27.2185 40.4825 27.2158 40.2281 27.2205C39.9737 27.2246 25.844 27.3585 25.5814 27.3666C25.3189 27.3754 25.0775 27.3835 24.8574 27.3923C24.6374 27.4011 24.4934 27.4092 24.4241 27.418C24.3899 27.418 24.3528 27.4329 24.3144 27.4627C24.2754 27.4924 24.2562 27.5202 24.2562 27.5459C24.2562 27.5871 24.274 27.6372 24.3192 27.694C24.3542 27.7326 24.42 27.761 24.4838 27.7786C24.5537 27.7982 24.6051 27.8205 24.6566 27.8543C24.6908 27.8712 24.7388 27.88 24.7731 27.9051C24.8074 27.9308 24.8465 27.9436 24.8897 27.9436C25.0014 27.9436 25.1029 27.9477 25.1934 27.9565C25.2839 27.9653 25.3785 27.9734 25.4779 27.9822C25.5766 27.991 39.5624 28.1324 39.692 28.1324H40.1959L37.9121 31.5125C37.7345 31.6059 37.5714 31.687 37.4233 31.754C37.2553 31.8304 37.171 31.8602 37.171 31.8433C37.171 31.8264 37.184 31.7689 37.2101 31.6715C37.2361 31.5741 37.2683 31.457 37.3067 31.3211C37.3458 31.1851 37.3842 31.0451 37.4233 30.9003C37.4624 30.7556 37.4987 30.6284 37.533 30.5175C37.5412 30.5094 37.546 30.5026 37.546 30.4985C37.546 30.4945 37.5501 30.4877 37.559 30.4796C37.5762 30.437 37.5892 30.3964 37.5981 30.3585C37.6063 30.32 37.6111 30.2841 37.6111 30.2503C37.6283 30.0805 37.6091 29.9378 37.5529 29.8228C37.4966 29.7078 37.4473 29.6293 37.4041 29.5867C37.3869 29.5698 37.3739 29.5529 37.365 29.536C37.3136 29.4426 37.2724 29.3466 37.2423 29.2492C37.2121 29.1517 37.1326 29.0942 37.003 29.0773C36.8302 29.0604 36.652 29.0692 36.4669 29.103C36.2817 29.1369 36.109 29.1795 35.9499 29.2309C35.7902 29.2816 35.6462 29.3391 35.5166 29.4034C35.387 29.467 35.2924 29.5204 35.2321 29.563C35.1285 29.6482 34.9626 29.7802 34.7343 29.9581C34.506 30.1366 34.2798 30.3362 34.0556 30.5574C33.8314 30.7786 33.6373 31.0059 33.4742 31.2399C33.3103 31.474 33.237 31.6884 33.2541 31.8839C33.2616 31.9021 33.2692 31.9204 33.276 31.9387C33.1526 31.9806 33.0347 32.0198 32.9243 32.0564C32.7563 32.1118 32.6549 32.1477 32.6206 32.1646C32.6549 32.0712 32.6919 31.9779 32.7303 31.8839C32.7694 31.7905 32.8016 31.7181 32.827 31.6667C32.8352 31.6586 32.8743 31.5754 32.9435 31.4178C33.0121 31.2609 33.0875 31.0823 33.1698 30.8821C33.2513 30.6825 33.3268 30.4823 33.396 30.2827C33.4646 30.0832 33.5037 29.9364 33.5126 29.8431C33.5126 29.7328 33.4845 29.6415 33.4282 29.5691C33.372 29.4967 33.3035 29.4413 33.2212 29.4034C33.1389 29.3648 33.0532 29.3459 32.9627 29.3459C32.8722 29.3459 32.7927 29.3675 32.7234 29.4095C32.6974 29.4264 32.6741 29.446 32.6521 29.467C32.6302 29.4886 32.6069 29.5075 32.5808 29.5245C32.4862 29.584 32.3587 29.6821 32.1996 29.818C32.0399 29.954 31.8788 30.09 31.7149 30.2259C31.551 30.3619 31.4043 30.485 31.2754 30.5959C31.1458 30.7062 31.0725 30.7664 31.0553 30.7745C31.0725 30.715 31.0876 30.6386 31.1006 30.5452C31.1136 30.4519 31.1219 30.3605 31.1266 30.2712C31.1308 30.182 31.1328 30.1035 31.1328 30.0352V29.9202C31.0725 29.7585 31.0012 29.6462 30.9196 29.582C30.8373 29.5184 30.7105 29.4947 30.5384 29.5116C30.3834 29.5204 30.2408 29.5583 30.1119 29.6266C29.9831 29.6949 29.8617 29.7754 29.7499 29.8688C29.6985 29.9114 29.6313 29.9709 29.5497 30.0473C29.4675 30.1238 29.3879 30.1982 29.3105 30.2706C29.233 30.3429 29.1638 30.4086 29.1034 30.4681C29.0431 30.5276 29.004 30.5614 28.9869 30.5702C29.1075 30.3917 29.2241 30.2198 29.3358 30.0541C29.4476 29.8884 29.56 29.7247 29.6718 29.563C29.6889 29.5373 29.6951 29.5015 29.691 29.4548C29.6869 29.4081 29.6738 29.3614 29.6519 29.3148C29.63 29.2681 29.6087 29.2275 29.5875 29.1937C29.5655 29.1599 29.5504 29.1342 29.5422 29.1172C29.5079 29.0665 29.473 29.0239 29.4387 28.9894C29.3441 28.8961 29.2426 28.8386 29.135 28.8176C29.0273 28.7966 28.943 28.8196 28.8827 28.8879C28.8223 28.9387 28.7682 28.9921 28.7208 29.0476C28.6735 29.103 28.6242 29.1646 28.5721 29.2322C28.5378 29.2749 28.4665 29.377 28.3588 29.538C28.2512 29.6997 28.1237 29.8911 27.9776 30.1116C27.8837 30.253 27.7891 30.4032 27.6938 30.5601C27.639 30.6128 27.5745 30.669 27.4991 30.7299C27.3784 30.828 27.2557 30.9254 27.1309 31.0234C27.0061 31.1215 26.8958 31.2081 26.8011 31.2846C26.7065 31.361 26.6462 31.4124 26.6201 31.4374C26.6201 31.3948 26.6222 31.359 26.6263 31.3292C26.6304 31.2994 26.6325 31.2717 26.6325 31.246C26.6236 31.1526 26.6085 31.0654 26.5872 30.9842C26.566 30.9037 26.5159 30.8334 26.4385 30.7738C26.206 30.5871 25.9345 30.4721 25.624 30.4295C25.5033 30.4126 25.3806 30.3937 25.2558 30.372C25.131 30.3511 24.9953 30.3321 24.8485 30.3145C24.9 30.2638 24.939 30.234 24.9651 30.2252C25.2407 30.0893 25.5122 29.9574 25.7796 29.8302C26.0463 29.7024 26.3137 29.5711 26.5811 29.4352C26.6668 29.3926 26.7189 29.3249 26.736 29.2309C26.736 29.1883 26.7271 29.1355 26.71 29.0712C26.6928 29.0077 26.6668 28.9671 26.6325 28.9502C26.5379 28.8994 26.4364 28.8588 26.3288 28.8291C26.2211 28.7993 26.1066 28.7973 25.986 28.823C25.2448 28.9759 24.5681 29.2437 23.9566 29.6266C23.853 29.6949 23.7543 29.7646 23.659 29.837C23.5644 29.9094 23.4951 30.0047 23.4519 30.1238C23.4348 30.2171 23.43 30.2983 23.4389 30.3659C23.4471 30.4343 23.4602 30.4938 23.478 30.5445C23.5041 30.6041 23.5294 30.6548 23.5555 30.6974C23.5726 30.7231 23.5946 30.7481 23.6199 30.7738C23.6371 30.7908 23.6563 30.8104 23.6782 30.8313C23.6995 30.853 23.7186 30.8679 23.7365 30.876C23.9346 31.0038 24.1245 31.0843 24.3048 31.1181C24.4769 31.152 24.6538 31.1736 24.8348 31.1817C25.0158 31.1905 25.205 31.2027 25.4032 31.2203C25.1529 31.365 24.9034 31.4882 24.6538 31.5903C24.4036 31.6924 24.141 31.7689 23.8654 31.8196C23.7186 31.8453 23.5699 31.8751 23.4197 31.9089C23.2689 31.9427 23.1201 31.9772 22.9741 32.011C22.9055 32.028 22.8603 32.0618 22.8383 32.1132C22.8171 32.1639 22.8274 32.2113 22.8706 32.2532C23.0344 32.3892 23.2024 32.5001 23.3745 32.5847C23.5041 32.6442 23.6371 32.6699 23.7749 32.6611C23.9127 32.653 24.0505 32.6273 24.1883 32.5847C24.49 32.5001 24.7937 32.4189 25.0995 32.3425C25.4052 32.2661 25.7049 32.1727 25.9976 32.0618C26.1697 31.9941 26.3726 31.8771 26.6051 31.7114C26.8375 31.5457 27.0528 31.3732 27.2516 31.1953C27.3016 31.1493 27.3524 31.1019 27.4031 31.0546C27.3044 31.2331 27.2146 31.4056 27.135 31.5714C27.0233 31.8054 26.939 32.0137 26.8827 32.1964C26.8265 32.379 26.8245 32.5089 26.8766 32.5853C26.8937 32.6023 26.9499 32.634 27.0445 32.6807C27.1391 32.7274 27.2084 32.772 27.2516 32.8147C27.2948 32.8573 27.3894 32.8336 27.5361 32.7443C27.6828 32.655 27.8508 32.5299 28.04 32.3682C28.2293 32.2065 28.4302 32.0219 28.6413 31.8135C28.8525 31.6052 29.0465 31.4097 29.2227 31.2271C29.3996 31.0444 29.5504 30.8888 29.6752 30.7617C29.8 30.6345 29.8713 30.5621 29.8884 30.5445C29.8795 30.5953 29.8624 30.6805 29.837 30.7995C29.811 30.9186 29.7829 31.0464 29.7527 31.1824C29.7225 31.3184 29.6903 31.4435 29.656 31.5585C29.6217 31.6735 29.5916 31.752 29.5655 31.7946C29.488 31.9475 29.451 32.0685 29.4558 32.1578C29.4599 32.2471 29.5223 32.3513 29.643 32.4703C29.7205 32.5387 29.8089 32.5914 29.9083 32.63C30.007 32.6685 30.1085 32.6746 30.212 32.6489C30.2463 32.6408 30.3499 32.5617 30.5219 32.4128C30.694 32.264 30.8819 32.0963 31.0841 31.9089C31.2864 31.7222 31.4825 31.5389 31.6724 31.3603C31.8616 31.1817 31.9912 31.0586 32.0604 30.9903C32.0344 31.0329 32.0022 31.1006 31.9638 31.1946C31.9247 31.2879 31.8794 31.386 31.828 31.4882C31.7766 31.5903 31.7245 31.6945 31.6731 31.8007C31.6217 31.9069 31.5696 31.9941 31.5181 32.0618C31.4749 32.1301 31.4386 32.1937 31.4084 32.2532C31.3783 32.3127 31.3844 32.3811 31.4276 32.4575C31.4708 32.5339 31.5312 32.5955 31.6086 32.6422C31.6861 32.6888 31.7725 32.7037 31.8671 32.6868C31.9014 32.6868 32.0138 32.6469 32.2031 32.5657C32.3923 32.4852 32.6034 32.3892 32.8366 32.2789C33.0004 32.2011 33.1602 32.1247 33.3179 32.0489C33.3295 32.0767 33.3418 32.1024 33.3535 32.126C33.5427 32.398 33.8101 32.5684 34.155 32.6361C34.4477 32.7037 34.7234 32.6868 34.9825 32.5853C35.0943 32.5427 35.1978 32.49 35.2924 32.4257C35.387 32.3621 35.4864 32.3046 35.59 32.2539C35.7106 32.1862 35.8635 32.0841 36.0486 31.9481C36.2337 31.8122 36.4339 31.6505 36.6499 31.4638C36.6328 31.5659 36.6389 31.6891 36.6691 31.8338C36.6993 31.9786 36.7918 32.0719 36.9468 32.1145C37.0503 32.1484 37.2053 32.1166 37.4123 32.0192C37.4898 31.9826 37.5673 31.9441 37.6454 31.9042L37.6063 31.9617C37.4768 32.149 37.4816 32.3229 37.6194 32.4846C37.6536 32.5272 37.6859 32.5657 37.716 32.5995C37.7462 32.6334 37.7825 32.6591 37.8257 32.676C37.86 32.6929 37.9073 32.697 37.9677 32.6888C38.028 32.6807 38.0904 32.6699 38.1548 32.657C38.2193 32.6442 38.2755 32.6273 38.3228 32.6063C38.3701 32.5853 38.4023 32.5664 38.4195 32.5488L38.536 32.4338C38.5703 32.4081 38.6629 32.3364 38.8137 32.2167C38.9645 32.0976 39.1455 31.9556 39.3567 31.7892C39.5679 31.6234 39.79 31.4449 40.0224 31.2534C40.2548 31.062 40.4729 30.8794 40.6751 30.7048C40.8774 30.531 41.0501 30.3822 41.1921 30.2584C41.1941 30.2564 41.1962 30.255 41.1982 30.253C41.1201 30.3714 41.0364 30.4958 40.9473 30.6277C40.8355 30.7935 40.7272 30.9551 40.6244 31.1121C40.5209 31.2697 40.4434 31.386 40.392 31.4625C40.3748 31.4963 40.3488 31.5517 40.3145 31.6282C40.2802 31.7046 40.2473 31.7878 40.2178 31.8771C40.1876 31.9664 40.1637 32.0516 40.1465 32.1321C40.1294 32.2133 40.1253 32.2789 40.1335 32.3296C40.1595 32.423 40.2281 32.5103 40.3405 32.5908C40.4523 32.6719 40.5688 32.6909 40.6895 32.6482C40.8102 32.6313 40.9288 32.6016 41.0447 32.559C41.1612 32.5163 41.2709 32.4697 41.3744 32.4189C41.443 32.3851 41.5081 32.3445 41.5685 32.2979C41.6288 32.2512 41.6932 32.2025 41.7625 32.1511C41.7968 32.1172 41.855 32.0597 41.9373 31.9793C42.0189 31.8988 42.1012 31.8135 42.1828 31.7242C42.2369 31.6654 42.2849 31.6119 42.3281 31.5639C42.3034 31.6525 42.2938 31.7378 42.3014 31.8196C42.3185 31.8622 42.3357 31.9048 42.3528 31.9475C42.3699 31.9901 42.3871 32.0286 42.4042 32.0625C42.5934 32.3344 42.8608 32.5048 43.2057 32.5725C43.4985 32.6408 43.7741 32.6232 44.0332 32.5218C44.0675 32.5136 44.1621 32.4791 44.3178 32.4196C44.4727 32.3601 44.6578 32.2918 44.8738 32.2153C45.0891 32.1389 45.3194 32.0557 45.5656 31.9664C45.811 31.8771 46.0393 31.7919 46.2505 31.7114C46.3314 31.6803 46.4061 31.6519 46.4788 31.6241C46.4534 31.7141 46.4438 31.8007 46.4507 31.8839C46.4678 31.9265 46.485 31.9691 46.5021 32.011C46.5192 32.0537 46.5364 32.0922 46.5535 32.126C46.7428 32.398 47.0101 32.5684 47.355 32.6361C47.6478 32.7037 47.9234 32.6868 48.1825 32.5853C48.2943 32.5427 48.3978 32.49 48.4924 32.4257C48.587 32.3621 48.6865 32.3046 48.79 32.2539C48.9106 32.1862 49.0635 32.0841 49.2486 31.9481C49.4338 31.8122 49.634 31.6505 49.8499 31.4638C49.8328 31.5659 49.839 31.6891 49.8691 31.8338C49.8993 31.9786 49.9919 32.0719 50.1468 32.1145C50.2503 32.1484 50.4053 32.1166 50.6123 32.0192C50.8194 31.9218 51.0257 31.8128 51.2328 31.6938C51.4741 31.549 51.7285 31.3793 51.9952 31.1838V31.0437C51.6853 31.2142 51.4138 31.3583 51.1807 31.4773L51.1855 31.4733ZM36.364 30.345C36.1789 30.5533 35.965 30.7617 35.7243 30.97C35.483 31.1783 35.2437 31.361 35.0072 31.5186C34.77 31.6762 34.5917 31.7587 34.471 31.7675C34.29 31.7594 34.1865 31.7168 34.1612 31.6404C34.1351 31.5639 34.1612 31.4658 34.2386 31.3468C34.3161 31.2277 34.4299 31.0979 34.5814 30.9578C34.7323 30.8178 34.8872 30.6839 35.047 30.556C35.206 30.4289 35.3569 30.3139 35.4995 30.2117C35.6414 30.1096 35.7429 30.0372 35.8032 29.9946C35.8978 29.9351 35.9972 29.8945 36.1007 29.8735C36.2043 29.8525 36.2989 29.8417 36.3853 29.8417C36.4799 29.8417 36.5745 29.8546 36.6698 29.8803C36.6527 29.9824 36.5512 30.1373 36.3661 30.3457L36.364 30.345ZM49.5633 30.345C49.3782 30.5533 49.1643 30.7617 48.9237 30.97C48.6823 31.1783 48.4431 31.361 48.2065 31.5186C47.9693 31.6762 47.791 31.7587 47.6704 31.7675C47.4894 31.7594 47.3859 31.7168 47.3605 31.6404C47.3344 31.5639 47.3605 31.4658 47.438 31.3468C47.5154 31.2277 47.6292 31.0979 47.7808 30.9578C47.9316 30.8178 48.0865 30.6839 48.2463 30.556C48.4054 30.4289 48.5562 30.3139 48.6988 30.2117C48.8407 30.1096 48.9422 30.0372 49.0025 29.9946C49.0971 29.9351 49.1965 29.8945 49.3001 29.8735C49.4036 29.8525 49.4982 29.8417 49.5846 29.8417C49.6792 29.8417 49.7738 29.8546 49.8691 29.8803C49.852 29.9824 49.7505 30.1373 49.5654 30.3457L49.5633 30.345Z" fill="#52024A"/>
</svg>
