<?xml version="1.0" encoding="UTF-8"?><svg id="Layer_1" xmlns="http://www.w3.org/2000/svg" viewBox="0 0 305 305"><defs><style>.cls-1{fill:#231f20;}</style></defs><path class="cls-1" d="M297.23,113.69H105.3v-37.86c0-1.56-.91-2.98-2.33-3.63-1.42-.65-3.09-.42-4.27,.6L4.93,153.17c-.91,.78-1.42,1.92-1.4,3.12s.59,2.32,1.53,3.06l93.77,73.67c.72,.56,1.59,.85,2.47,.85,.59,0,1.19-.13,1.75-.4,1.38-.67,2.25-2.07,2.25-3.6v-37.86h191.94c2.21,0,4-1.79,4-4V117.69c0-2.21-1.79-4-4-4Zm-4,8v27.16H105.3v-27.16h187.94ZM13.83,156.07L97.3,84.53v28.73l-47.27,42.32,47.27,37.34v28.72L13.83,156.07Zm91.46,27.95v-27.16h187.94v27.16H105.3Z"/></svg>