<?xml version="1.0" encoding="utf-8"?>
<!-- Generator: Adobe Illustrator 26.3.1, SVG Export Plug-In . SVG Version: 6.00 Build 0)  -->
<svg version="1.1" id="Layer_1" xmlns="http://www.w3.org/2000/svg" xmlns:xlink="http://www.w3.org/1999/xlink" x="0px" y="0px"
	 viewBox="0 0 305 305" style="enable-background:new 0 0 305 305;" xml:space="preserve">
<path d="M302.4,97.7c0-0.2,0-0.3,0-0.4s0-0.2,0-0.3c0-0.1-0.1-0.2-0.1-0.4c0-0.1-0.1-0.2-0.1-0.4s-0.1-0.2-0.2-0.3
	c-0.1-0.1-0.1-0.2-0.2-0.3s-0.2-0.2-0.2-0.3c-0.1-0.1-0.2-0.2-0.3-0.3c-0.1-0.1-0.2-0.2-0.3-0.2c-0.1-0.1-0.2-0.2-0.4-0.3
	c0,0,0,0-0.1-0.1L152.3,3.8c-1.3-0.8-3-0.8-4.3,0L4.9,94.3l0,0c-0.1,0.1-0.2,0.2-0.4,0.3c-0.1,0.1-0.2,0.1-0.2,0.2
	C4.2,95,4.1,95.1,4,95.2s-0.2,0.2-0.2,0.3c-0.1,0.1-0.1,0.2-0.2,0.3c-0.1,0.1-0.1,0.2-0.2,0.3c0,0.1-0.1,0.2-0.1,0.3
	c0,0.1-0.1,0.3-0.1,0.4s0,0.2,0,0.3c0,0.2,0,0.3,0,0.5c0,0,0,0,0,0.1v200.9c0,2.2,1.8,4,4,4h291.4c2.2,0,4-1.8,4-4L302.4,97.7
	L302.4,97.7L302.4,97.7z M150.2,11.9l134,81.8H20.9L150.2,11.9z M294.4,294.7H11.1v-193h283.4L294.4,294.7L294.4,294.7z"/>
<path d="M80.6,207.8c17.6-3.4,35.6-4.3,53.8-3.5c17.1,0.7,34.1,2.5,51.2,2.9c10.9,0.3,21.8,0,32.7-0.9c1.9-0.2,3.9-1.6,3.8-3.8
	c-0.1-1.9-1.7-3.9-3.8-3.8c-18.6,1.6-37.2,1.1-55.8-0.2c-17.1-1.2-34.2-2.6-51.3-1.8c-10.9,0.5-21.8,1.8-32.6,3.9
	c-2,0.4-3.1,2.8-2.6,4.6C76.6,207.3,78.6,208.2,80.6,207.8L80.6,207.8z"/>
<path d="M196,222.2c-3.7,0.1-7.4,0-11-0.2c-9.4-0.6-18.8-1.5-28.2-2c-11.6-0.6-23.3-0.4-34.9,0.1c-13.7,0.6-27.3,0.9-41,0.2
	c-2-0.1-3.8,1.8-3.8,3.8c0.1,2.1,1.7,3.6,3.8,3.8c12.5,0.6,25,0.5,37.5,0c11.2-0.5,22.5-0.9,33.7-0.5c10.4,0.4,20.8,1.4,31.2,2.1
	c3.7,0.3,7.5,0.4,11.2,0.3c10-0.2,20-0.3,30.1-0.3c2,0,3.8-1.7,3.8-3.8s-1.6-3.8-3.8-3.8C215.1,222,205.5,222,196,222.2L196,222.2z"
	/>
<path d="M79.6,254.3c19.9,0,39.8,0.4,59.7,0.8c16.9,0.3,33.8,0.4,50.7-0.3c11.9-0.5,23.9-1.3,35.8-2.2c1.9-0.2,3.9-1.6,3.8-3.8
	c-0.1-1.9-1.7-3.9-3.8-3.8c-19.6,1.6-39.2,2.6-58.9,2.8c-17,0.1-34-0.4-51-0.8c-12.1-0.2-24.3-0.4-36.4-0.3c-2,0-3.8,1.7-3.8,3.8
	S77.5,254.3,79.6,254.3L79.6,254.3z"/>
<path d="M208.8,120.4h63.6c2.2,0,4,1.8,4,4v45.2c0,2.2-1.8,4-4,4h-63.6c-2.2,0-4-1.8-4-4v-45.2C204.8,122.2,206.6,120.4,208.8,120.4
	z"/>
</svg>
