<svg width="50" height="50" viewBox="0 0 50 50" fill="currentColor" stroke="currentColor" xmlns="http://www.w3.org/2000/svg">
<path d="M24.8879 3.67969C20.782 3.67969 16.7683 4.89724 13.3543 7.17838C9.94034 9.45952 7.27948 12.7018 5.7082 16.4952C4.13692 20.2886 3.72581 24.4627 4.52684 28.4898C5.32787 32.5168 7.30506 36.2159 10.2084 39.1192C13.1117 42.0226 16.8108 43.9998 20.8379 44.8008C24.8649 45.6018 29.0391 45.1907 32.8324 43.6194C36.6258 42.0482 39.8681 39.3873 42.1493 35.9733C44.4304 32.5594 45.6479 28.5456 45.6479 24.4397C45.6416 18.9357 43.4523 13.659 39.5605 9.76717C35.6686 5.87529 30.3919 3.68604 24.8879 3.67969ZM18.0639 8.04569C15.2487 12.583 13.6493 17.7689 13.4199 23.1037H7.17994C7.43145 19.8349 8.58085 16.699 10.5014 14.0419C12.4219 11.3849 15.039 9.30985 18.0639 8.04569ZM7.19994 26.1037H13.4379C13.7174 31.3245 15.3084 36.3905 18.0639 40.8337C15.089 39.5923 12.507 37.5663 10.5936 34.972C8.68026 32.3777 7.50729 29.3126 7.19994 26.1037ZM23.3799 42.1337C23.1159 42.1117 22.8519 42.0837 22.5919 42.0497C18.9316 37.5037 16.7792 31.9299 16.4339 26.1037H23.3799V42.1337ZM23.3799 23.1037H16.4239C16.7055 17.1609 18.8682 11.4613 22.5999 6.82769C22.8599 6.79369 23.1239 6.76769 23.3879 6.74369L23.3799 23.1037ZM42.5899 23.1037H36.2879C36.0575 17.7516 34.4489 12.5496 31.6179 8.00169C34.6675 9.2549 37.3091 11.3305 39.2482 13.997C41.1873 16.6636 42.3477 19.8163 42.5999 23.1037H42.5899ZM26.3799 6.74369C26.6199 6.76369 26.8559 6.78969 27.0919 6.81769C30.8282 11.4532 32.9938 17.1566 33.2759 23.1037H26.3879L26.3799 6.74369ZM26.3799 42.1437V26.1037H33.2579C32.9121 31.9342 30.7567 37.5117 27.0919 42.0597C26.8639 42.0897 26.6279 42.1137 26.3879 42.1337L26.3799 42.1437ZM31.6099 40.8817C34.381 36.43 35.9813 31.3499 36.2619 26.1137H42.5599C42.2505 29.3361 41.0681 32.413 39.1401 35.0135C37.2121 37.6139 34.6114 39.6393 31.6179 40.8717L31.6099 40.8817Z" fill="currentColor" stroke="currentColor"/>
</svg>
