<svg width="50" height="50" viewBox="0 0 50 50" fill="currentColor"  xmlns="http://www.w3.org/2000/svg">
<path d="M38.0379 19.7109C35.4214 19.7092 32.8899 20.6403 30.8979 22.3369C31.9471 22.7427 32.9522 23.2539 33.8979 23.8629C35.1198 23.1279 36.5149 22.7305 37.9407 22.7115C39.3664 22.6925 40.7717 23.0525 42.0126 23.7548C43.2536 24.4571 44.2858 25.4763 45.0036 26.7084C45.7214 27.9405 46.099 29.3411 46.0979 30.767H49.0979C49.0948 27.835 47.9284 25.0241 45.8548 22.9513C43.7812 20.8784 40.9699 19.7131 38.0379 19.7109Z" fill="currentColor"/>
<path d="M11.744 22.7131C13.2052 22.7117 14.6389 23.1101 15.89 23.8651C16.8357 23.2561 17.8408 22.7448 18.89 22.3391C17.2827 20.9718 15.3173 20.0936 13.2265 19.8084C11.1357 19.5232 9.00699 19.8429 7.09225 20.7298C5.17751 21.6167 3.55692 23.0336 2.4223 24.8127C1.28768 26.5919 0.686513 28.6589 0.689956 30.7691H3.68996C3.69207 28.6335 4.54123 26.5859 6.05114 25.0756C7.56104 23.5654 9.60837 22.7157 11.744 22.7131Z" fill="currentColor"/>
<path d="M24.892 11C23.8129 11 22.7581 11.32 21.8608 11.9195C20.9636 12.519 20.2643 13.3711 19.8514 14.3681C19.4384 15.365 19.3304 16.4621 19.5409 17.5204C19.7514 18.5788 20.271 19.5509 21.0341 20.314C21.7971 21.077 22.7693 21.5966 23.8276 21.8072C24.886 22.0177 25.983 21.9096 26.9799 21.4967C27.9769 21.0837 28.829 20.3844 29.4285 19.4872C30.028 18.59 30.348 17.5351 30.348 16.456C30.3459 15.0096 29.7704 13.6231 28.7477 12.6004C27.7249 11.5776 26.3384 11.0021 24.892 11ZM24.892 18.914C24.4058 18.9144 23.9304 18.7706 23.5259 18.5007C23.1214 18.2309 22.8061 17.8471 22.6197 17.398C22.4334 16.9489 22.3844 16.4546 22.479 15.9777C22.5736 15.5008 22.8076 15.0626 23.1513 14.7186C23.4949 14.3747 23.9329 14.1404 24.4098 14.0454C24.8866 13.9504 25.3809 13.9989 25.8302 14.1849C26.2795 14.3709 26.6635 14.6859 26.9336 15.0902C27.2038 15.4945 27.348 15.9698 27.348 16.456C27.3459 17.1064 27.0864 17.7294 26.6261 18.1889C26.1659 18.6484 25.5424 18.9069 24.892 18.908V18.914Z" fill="currentColor" />
<path d="M38.038 17.8417C39.1171 17.8417 40.172 17.5217 41.0692 16.9222C41.9665 16.3227 42.6658 15.4706 43.0787 14.4736C43.4917 13.4767 43.5997 12.3796 43.3892 11.3213C43.1787 10.2629 42.659 9.29075 41.896 8.52771C41.133 7.76468 40.1608 7.24505 39.1024 7.03453C38.0441 6.824 36.9471 6.93205 35.9501 7.345C34.9532 7.75795 34.101 8.45726 33.5015 9.3545C32.902 10.2517 32.582 11.3066 32.582 12.3857C32.5836 13.8322 33.159 15.2191 34.1818 16.2419C35.2047 17.2648 36.5915 17.8401 38.038 17.8417ZM38.038 9.92969C38.5238 9.92969 38.9986 10.0737 39.4025 10.3436C39.8064 10.6135 40.1212 10.997 40.3071 11.4458C40.493 11.8946 40.5416 12.3884 40.4468 12.8648C40.3521 13.3412 40.1182 13.7789 39.7747 14.1223C39.4312 14.4658 38.9936 14.6997 38.5172 14.7945C38.0408 14.8893 37.5469 14.8406 37.0982 14.6547C36.6494 14.4688 36.2658 14.1541 35.9959 13.7502C35.7261 13.3463 35.582 12.8714 35.582 12.3857C35.5831 11.7346 35.8422 11.1106 36.3025 10.6502C36.7629 10.1898 37.387 9.93075 38.038 9.92969Z" fill="currentColor"/>
<path d="M6.28809 12.3857C6.28809 13.4648 6.60807 14.5196 7.20759 15.4169C7.8071 16.3141 8.65921 17.0134 9.65616 17.4264C10.6531 17.8393 11.7501 17.9474 12.8085 17.7368C13.8669 17.5263 14.839 17.0067 15.6021 16.2437C16.3651 15.4806 16.8847 14.5085 17.0952 13.4501C17.3058 12.3917 17.1977 11.2947 16.7848 10.2978C16.3718 9.30081 15.6725 8.4487 14.7753 7.84919C13.878 7.24968 12.8232 6.92969 11.7441 6.92969C10.2976 6.93128 8.91072 7.50661 7.88786 8.52947C6.86501 9.55232 6.28967 10.9392 6.28809 12.3857ZM14.2001 12.3857C14.2001 12.8714 14.056 13.3463 13.7862 13.7502C13.5163 14.1541 13.1327 14.4688 12.684 14.6547C12.2352 14.8406 11.7414 14.8893 11.2649 14.7945C10.7885 14.6997 10.3509 14.4658 10.0074 14.1223C9.66395 13.7789 9.43004 13.3412 9.33528 12.8648C9.24051 12.3884 9.28915 11.8946 9.47504 11.4458C9.66093 10.997 9.97572 10.6135 10.3796 10.3436C10.7835 10.0737 11.2583 9.92969 11.7441 9.92969C12.3953 9.93022 13.0197 10.1891 13.4802 10.6496C13.9406 11.1101 14.1996 11.7345 14.2001 12.3857Z" fill="currentColor"/>
<path d="M31.5799 25.9592C29.5377 24.8105 27.234 24.207 24.8909 24.207C22.5478 24.207 20.2441 24.8105 18.2019 25.9592C16.081 27.1471 14.3146 28.8784 13.0844 30.9751C11.8542 33.0718 11.2044 35.4582 11.2019 37.8892H14.1999C14.2022 36.0204 14.6944 34.1848 15.6276 32.5656C16.5607 30.9464 17.9021 29.6001 19.5179 28.6612C21.1482 27.7083 23.0026 27.2062 24.8909 27.2062C26.7792 27.2062 28.6336 27.7083 30.2639 28.6612C31.8782 29.6012 33.218 30.9478 34.1497 32.5669C35.0814 34.1861 35.5724 36.0211 35.5739 37.8892H38.5739C38.572 35.4588 37.9232 33.0728 36.694 30.9762C35.4649 28.8795 33.6997 27.1479 31.5799 25.9592Z" fill="currentColor"/>
</svg>
