<svg width="50" height="50" viewBox="0 0 50 50" fill="currentColor" stroke="currentColor" xmlns="http://www.w3.org/2000/svg">
<path d="M18.0313 11.6662C18.0309 13.0778 18.4491 14.4577 19.233 15.6315C20.017 16.8053 21.1315 17.7203 22.4355 18.2606C23.7395 18.801 25.1745 18.9425 26.5589 18.6672C27.9434 18.3919 29.2151 17.7122 30.2132 16.7141C31.2113 15.716 31.891 14.4443 32.1662 13.0599C32.4415 11.6755 32.3 10.2405 31.7597 8.93647C31.2193 7.63246 30.3044 6.51799 29.1306 5.73403C27.9567 4.95006 26.5768 4.53183 25.1652 4.53223C23.2738 4.53434 21.4605 5.28664 20.1231 6.62407C18.7857 7.96149 18.0334 9.77482 18.0313 11.6662ZM29.3012 11.6662C29.3016 12.4843 29.0594 13.2842 28.6052 13.9646C28.151 14.645 27.5051 15.1755 26.7494 15.4888C25.9937 15.8022 25.162 15.8844 24.3596 15.725C23.5571 15.5656 22.82 15.1719 22.2414 14.5935C21.6627 14.0152 21.2686 13.2782 21.1089 12.4759C20.9491 11.6735 21.0309 10.8418 21.3439 10.0859C21.6569 9.33004 22.187 8.68397 22.8672 8.22941C23.5474 7.77485 24.3471 7.53223 25.1652 7.53223C26.2615 7.53328 27.3126 7.96911 28.088 8.7441C28.8633 9.51908 29.2997 10.57 29.3012 11.6662Z" fill="currentColor"/>
<path d="M20.1602 33.4717H17.1602V40.8477H20.1602V33.4717Z" fill="currentColor" stroke="currentColor"/>
<path d="M25.1622 25.1358C29.3284 25.1406 33.3225 26.7977 36.2684 29.7436C39.2143 32.6895 40.8715 36.6837 40.8762 40.8498H43.8762C43.9018 38.3761 43.4366 35.9219 42.5077 33.6291C41.5788 31.3363 40.2044 29.2504 38.4642 27.4922C36.724 25.7339 34.6525 24.3381 32.3694 23.3855C30.0863 22.4329 27.6371 21.9424 25.1632 21.9424C22.6894 21.9424 20.2401 22.4329 17.957 23.3855C15.6739 24.3381 13.6024 25.7339 11.8622 27.4922C10.122 29.2504 8.74768 31.3363 7.81873 33.6291C6.88978 35.9219 6.42464 38.3761 6.45022 40.8498H9.45022C9.45498 36.684 11.1118 32.6902 14.0573 29.7443C17.0028 26.7985 20.9964 25.1411 25.1622 25.1358Z" fill="currentColor"/>
</svg>
