<?xml version="1.0" encoding="UTF-8"?>
<svg id="Layer_1" data-name="Layer 1" xmlns="http://www.w3.org/2000/svg" width="305" height="305" viewBox="0 0 305 305">
  <path d="m124.09,235.95c-19.92,0-35.51,14.53-35.51,33.09s15.47,34.49,34.49,34.49,34.49-15.47,34.49-34.49-14.39-33.09-33.47-33.09Zm20.65,48.3c-3.84,4.68-8.35,6.96-16.04,6.43-10.17-.7-17.69-6.02-17.77-23.9-.09-20.52,13.62-24.81,24.63-20.41,8.52,3.92,14.01,12.27,14.01,22.67,0,5.66-1.79,10.9-4.82,15.21Z"/>
  <path d="m224.48,19.92C193.05-6.37,144.09,2.43,132.7,6.23c-29.11,9.7-74.12,52.74-76.03,54.56-.77.74-1.21,1.76-1.23,2.83-.01,1.07.4,2.1,1.15,2.86l36.21,36.7c.8.82,1.93,1.24,3.07,1.18,1.14-.06,2.21-.61,2.92-1.51,11.9-15.03,47.05-52.68,66.51-46.59,6.28,1.97,14.13,10.15,15.87,37.95.77,12.35-7.13,14.49-32.21,19.38-2.39.47-4.89.95-7.51,1.48-19.09,3.84-30.75,11.19-35.63,22.47-11.25,25.96-8.97,80.3-8.87,82.68.09,2.11,1.81,3.79,3.92,3.83l46.59.85s.05,0,.07,0c2.13,0,3.89-1.67,3.99-3.8l2.26-43.04c0-.07,0-.13,0-.2,0-.51.38-.93.9-.98,14.14-1.21,85.11-10.1,93.37-66.91,6.05-41.61-1.89-71.92-23.58-90.07Zm15.67,88.92c-7.39,50.84-73.04,58.97-86.13,60.09-4.65.4-8.16,4.18-8.22,8.83l-2.06,39.09-20.5-.37,2.82-54.27c-.42-7.68,3.69-14.37,11.29-15.53,22.85-3.48,67.39-7.15,70.78-39.91,3.62-34.98-1.13-68.89-34.54-76.71-30.02-7.02-75.74,36.99-75.74,36.99l-15.68,13.94-16.99-17.21c10.52-9.74,46.73-42.19,70.06-49.97,9.86-3.29,55.81-11.44,84.11,12.24,19.42,16.25,26.42,44.1,20.8,82.78Z"/>
</svg>